<svg width="256" height="290" xmlns="http://www.w3.org/2000/svg" preserveAspectRatio="xMidYMid">

 <g>
  <title>background</title>
  <rect fill="none" id="canvas_background" height="292" width="258" y="-1" x="-1"/>
 </g>
 <g>
  <title>Layer 1</title>
  <g id="svg_1">
   <path id="svg_2" fill="#264DE4" d="m127.84387,289.429333l-104.18216,-28.92167l-23.21652,-260.40053l255.10962,0l-23.24114,260.35974l-104.4698,28.96246l0,0z"/>
   <path id="svg_3" fill="#2965F1" d="m212.4167,243.888063l19.8611,-222.48932l-104.2778,0l0,245.89292l84.4167,-23.4036l0,0z"/>
   <path id="svg_4" fill="#EBEBEB" d="m53.66857,117.977553l2.86242,31.9367l71.46901,0l0,-31.9367l-74.33143,0l0,0z"/>
   <path id="svg_5" fill="#EBEBEB" d="m47.91701,53.336153l2.90321,31.9374l77.17978,0l0,-31.9374l-80.08299,0l0,0z"/>
   <path id="svg_6" fill="#EBEBEB" d="m128,200.921553l-0.13996,0.03728l-35.56852,-9.60422l-2.27376,-25.4713l-32.05978,0l4.47437,50.14576l65.42066,18.16123l0.14699,-0.04079l0,-33.22796l0,0z"/>
   <path id="svg_7" fill="#FFFFFF" d="m202.12677,117.977553l5.76563,-64.6414l-80.00282,0l0,31.9374l45.00255,0l-2.90602,32.704l-42.09653,0l0,31.9367l39.32695,0l-3.70708,41.41996l-35.61987,9.61407l0,33.22655l65.47271,-18.14576l0.48035,-5.39569l7.50488,-84.07983l0.77925,-8.576l0,0z"/>
  </g>
 </g>
</svg>