<svg width="258" height="292" xmlns="http://www.w3.org/2000/svg" preserveAspectRatio="xMidYMid">

 <g>
  <title>background</title>
  <rect fill="none" id="canvas_background" height="294" width="260" y="-1" x="-1"/>
 </g>
 <g>
  <title>Layer 1</title>
  <g id="svg_1">
   <path id="svg_2" fill="#E44D26" d="m256.554813,1.055036l-23.241143,260.359737l-104.469802,28.962461l-104.182154,-28.92167l-23.216527,-260.400528l255.109626,0l0,0z"/>
   <path id="svg_3" fill="#F16529" d="m129,268.239564l84.416703,-23.403605l19.861099,-222.489318l-104.277802,0l0,245.892923l0,0z"/>
   <path id="svg_4" fill="#EBEBEB" d="m83.82022,86.221454l45.17978,0l0,-31.937407l-80.082989,0l0.764483,8.568264l7.849495,88.009846l71.469011,0l0,-31.936703l-42.261099,0l-2.918681,-32.704l0,0z"/>
   <path id="svg_5" fill="#EBEBEB" d="m91.017758,166.831212l-32.05978,0l4.474374,50.145758l65.420659,18.161231l0.146989,-0.040791l0,-33.227956l-0.139956,0.037275l-35.568527,-9.60422l-2.273759,-25.471297l0,0z"/>
   <path id="svg_10" fill="#FFFFFF" d="m128.889582,150.862157l39.326945,0l-3.707076,41.419956l-35.619869,9.614066l0,33.22655l65.472704,-18.145759l0.480351,-5.395692l7.504879,-84.079824l0.779253,-8.576l-74.237187,0l0,31.936703l0,0z"/>
   <path id="svg_11" fill="#FFFFFF" d="m128.889582,86.143388l0,0.078066l77.143209,0l0.640704,-7.17855l1.45512,-16.190593l0.763781,-8.568264l-80.002814,0l0,31.859341l0,0z"/>
  </g>
 </g>
</svg>