<svg width="92" height="91" xmlns="http://www.w3.org/2000/svg">

 <g>
  <title>background</title>
  <rect fill="none" id="canvas_background" height="93" width="94" y="-1" x="-1"/>
 </g>
 <g>
  <title>Layer 1</title>
  <g id="svg_1" fill-rule="evenodd" fill="none">
   <g id="svg_2">
    <g id="svg_10" fill="#21609B">
     <path id="svg_11" d="m88.208414,66.964092l-0.402146,1.041655c-6.851188,13.339464 -18.989119,21.524598 -36.302958,21.885548c-8.093915,0.166743 -15.806283,-1.909701 -20.843892,-4.168583c-10.872644,-4.884597 -20.017043,-13.943662 -25.011495,-23.62262c-7.164076,-13.875004 -8.455846,-33.176031 6.440215,-47.59246c0.229517,0 -1.806713,3.125946 -1.577195,3.125946l-0.409993,1.333947c-10.734345,33.60662 22.336736,62.40613 54.484843,59.112459c7.7261,-0.79154 17.578667,-5.022896 23.622621,-11.115892"/>
     <path id="svg_12" d="m68.754375,53.067509c8.088031,0.055908 16.536031,-3.72426 21.53833,-9.031601c-4.376521,11.110008 -17.049012,18.251525 -34.044077,15.979893c-14.229088,-1.903817 -27.784337,-16.223142 -29.181057,-30.570912c-1.021058,-10.442054 2.61885,-16.67433 8.615724,-24.233686c-2.084291,3.953778 -2.86308,7.003218 -3.057287,8.94823c-2.278498,22.587831 18.043586,38.790375 36.128367,38.908076"/>
     <path id="svg_13" d="m89.480567,25.01246c-1.257441,2.883678 -8.497042,8.330298 -11.693609,9.011003c-12.658759,2.696338 -20.766406,-3.306421 -25.012475,-10.137011c-0.631663,-1.021058 -1.798866,-3.806651 -2.007786,-4.515801c-1.646835,-5.599632 -0.889624,-14.069211 4.023418,-18.453578c-1.480092,4.168582 -1.695877,9.011003 -0.917088,12.158528c0.471785,1.903816 1.909701,5.225931 3.348598,7.316108c2.61885,3.807632 4.279417,4.732567 7.642727,6.754084c1.514422,0.910222 3.139679,1.639969 3.841962,1.841042c3.18872,0.937686 9.921226,3.411372 20.774253,-3.974375"/>
    </g>
   </g>
  </g>
 </g>
</svg>